External Loads File
version=1
nRows=48
nColumns=13
Range=5.000000e-03-10 seconds
endheader
time 	forceRightX 	forceRightY 	forceRightZ 	pointRightX 	pointRightY 	pointRightZ 	forceLeftX 	forceLeftY 	forceLeftZ 	pointLeftX 	pointLeftY 	pointLeftZ 		
0.005000 21.941952 74.526286 -0.000000 0.360919 0.366515 -0.161477 7.069004 98.354179 -0.000000 0.051749 0.284389 -0.398486
0.010000 21.823273 74.545689 -0.000000 0.360908 0.366551 -0.161482 7.567249 98.470935 -0.000000 0.051762 0.284332 -0.398487
0.015000 21.691485 74.547359 -0.000000 0.360897 0.366595 -0.161480 7.962100 98.583561 -0.000000 0.051781 0.284253 -0.398483
0.020000 21.593681 74.523760 -0.000000 0.360873 0.366640 -0.161478 8.305935 98.696220 -0.000000 0.051708 0.284200 -0.398352
0.025000 21.454510 74.506738 -0.000000 0.360734 0.366957 -0.161401 8.463134 98.815316 -0.000000 0.051685 0.284148 -0.398384
0.030000 21.367838 74.470725 -0.000000 0.360688 0.367067 -0.161384 8.506621 98.910624 -0.000000 0.051695 0.284063 -0.398385
0.035000 21.271556 74.426736 -0.000000 0.360659 0.367153 -0.161383 8.327243 98.964872 -0.000000 0.051706 0.284004 -0.398395
0.040000 21.144166 74.378837 -0.000000 0.360622 0.367227 -0.161382 7.947896 98.974544 -0.000000 0.051719 0.283935 -0.398407
0.045000 21.011197 74.329484 -0.000000 0.360598 0.367296 -0.161379 7.531688 98.952350 -0.000000 0.051727 0.283892 -0.398401
0.050000 20.895328 74.291137 -0.000000 0.360579 0.367351 -0.161380 7.235943 98.920319 -0.000000 0.051741 0.283833 -0.398403
0.055000 20.829381 74.277199 -0.000000 0.360556 0.367399 -0.161365 7.137696 98.892772 -0.000000 0.051738 0.283769 -0.398412
0.060000 20.829569 74.299231 -0.000000 0.360548 0.367446 -0.161382 7.189904 98.864342 -0.000000 0.051731 0.283716 -0.398410
0.065000 20.863470 74.365728 -0.000000 0.360527 0.367533 -0.161368 7.254118 98.816698 -0.000000 0.051732 0.283659 -0.398399
0.070000 20.929812 74.460851 -0.000000 0.360522 0.367576 -0.161372 7.274197 98.736148 -0.000000 0.051725 0.283619 -0.398413
0.075000 20.999149 74.572761 -0.000000 0.360510 0.367618 -0.161359 7.208922 98.638146 -0.000000 0.051716 0.283575 -0.398406
0.080000 21.089670 74.686491 -0.000000 0.360515 0.367665 -0.161366 7.111296 98.551523 -0.000000 0.051697 0.283543 -0.398396
0.085000 21.226997 74.798485 -0.000000 0.360520 0.367701 -0.161380 7.056428 98.498227 -0.000000 0.051685 0.283511 -0.398389
0.090000 21.411535 74.910291 -0.000000 0.360504 0.367751 -0.161366 7.097620 98.482555 -0.000000 0.051677 0.283467 -0.398380
0.095000 21.624521 75.009428 -0.000000 0.360507 0.367790 -0.161380 7.285511 98.498668 -0.000000 0.051655 0.283424 -0.398382
0.100000 21.808709 75.078406 -0.000000 0.360499 0.367835 -0.161378 7.632955 98.545373 -0.000000 0.051643 0.283409 -0.398380
0.105000 21.907295 75.105898 -0.000000 0.360490 0.367882 -0.161382 8.097990 98.622229 -0.000000 0.051629 0.283352 -0.398370
0.110000 21.927743 75.082012 -0.000000 0.360467 0.367932 -0.161375 8.601167 98.715756 -0.000000 0.051625 0.283313 -0.398382
0.115000 21.889256 75.006478 -0.000000 0.360456 0.367982 -0.161396 8.989286 98.799941 -0.000000 0.051610 0.283267 -0.398371
0.120000 21.810962 74.885855 -0.000000 0.360428 0.368053 -0.161392 9.116989 98.841080 -0.000000 0.051615 0.283214 -0.398385
0.125000 21.732579 74.729077 -0.000000 0.360395 0.368108 -0.161394 8.957456 98.815304 -0.000000 0.051617 0.283143 -0.398380
0.130000 21.679451 74.551357 -0.000000 0.360370 0.368176 -0.161398 8.604377 98.736439 -0.000000 0.051616 0.283089 -0.398378
0.135000 21.661289 74.367908 -0.000000 0.360329 0.368227 -0.161394 8.236808 98.649727 -0.000000 0.051622 0.283035 -0.398379
0.140000 21.655639 74.203953 -0.000000 0.360291 0.368337 -0.161395 7.967651 98.595912 -0.000000 0.051632 0.282969 -0.398378
0.145000 21.684534 74.076089 -0.000000 0.360260 0.368397 -0.161387 7.833321 98.575969 -0.000000 0.051641 0.282886 -0.398372
0.150000 21.747452 74.004325 -0.000000 0.360225 0.368463 -0.161390 7.718918 98.568101 -0.000000 0.051666 0.282812 -0.398374
0.155000 21.852885 73.995381 -0.000000 0.360182 0.368526 -0.161384 7.517359 98.551275 -0.000000 0.051682 0.282720 -0.398384
0.160000 22.010527 74.046415 -0.000000 0.360131 0.368593 -0.161384 7.226797 98.522840 -0.000000 0.051683 0.282632 -0.398382
0.165000 22.213890 74.156234 -0.000000 0.360081 0.368686 -0.161383 6.929847 98.499734 -0.000000 0.051697 0.282545 -0.398393
0.170000 22.478440 74.315908 -0.000000 0.360050 0.368739 -0.161391 6.768793 98.503715 -0.000000 0.051712 0.282468 -0.398390
0.175000 22.771166 74.524748 -0.000000 0.360021 0.368792 -0.161394 6.803422 98.557817 -0.000000 0.051720 0.282372 -0.398392
0.180000 23.082182 74.765407 -0.000000 0.359997 0.368844 -0.161392 7.095484 98.677046 -0.000000 0.051723 0.282321 -0.398400
0.185000 23.375419 75.023350 -0.000000 0.359980 0.368915 -0.161394 7.603090 98.863078 -0.000000 0.051725 0.282265 -0.398399
0.190000 23.646468 75.272186 -0.000000 0.359977 0.368977 -0.161404 8.214987 99.080040 -0.000000 0.051712 0.282213 -0.398400
0.195000 23.879500 75.486078 -0.000000 0.359971 0.369003 -0.161415 8.742822 99.264927 -0.000000 0.051699 0.282155 -0.398391
0.200000 24.041216 75.645357 -0.000000 0.359981 0.369039 -0.161411 9.034154 99.366576 -0.000000 0.051679 0.282095 -0.398395
0.205000 24.113760 75.733407 -0.000000 0.359991 0.369088 -0.161416 9.097360 99.374287 -0.000000 0.051659 0.282066 -0.398394
0.210000 24.074910 75.745310 -0.000000 0.359997 0.369113 -0.161410 9.059342 99.320724 -0.000000 0.051636 0.282027 -0.398390
0.215000 23.900760 75.683259 -0.000000 0.360011 0.369156 -0.161422 9.061720 99.252380 -0.000000 0.051610 0.281978 -0.398382
0.220000 23.602312 75.547615 -0.000000 0.360020 0.369190 -0.161419 9.176120 99.190186 -0.000000 0.051591 0.281954 -0.398382
0.225000 23.190634 75.354805 -0.000000 0.360028 0.369228 -0.161415 9.326351 99.123264 -0.000000 0.051568 0.281916 -0.398374
0.230000 22.703668 75.123005 -0.000000 0.360025 0.369268 -0.161412 9.410040 99.023505 -0.000000 0.051560 0.281877 -0.398359
0.235000 22.177959 74.870589 -0.000000 0.360025 0.369349 -0.161408 9.353955 98.873426 -0.000000 0.051560 0.281846 -0.398349
0.240000 21.669056 74.611527 -0.000000 0.360013 0.369403 -0.161406 9.177421 98.676100 -0.000000 0.051544 0.281790 -0.398362
